inDegrees=no
num_controls=7
num_derivatives=13
num_iterations=132
num_multipliers=7
num_parameters=0
num_slacks=7
num_states=26
objective=5.343887
objective_accelerations=0.532974
objective_balance=0.081787
objective_effort=0.450145
objective_height=4.258403
objective_ligament=0.020579
solver_duration=1589.482684
status=Solve_Succeeded
success=true
DataType=double
version=3
OpenSimVersion=4.4-2022-07-23-0e9fedc
endheader
time	/jointset/ground_pelvis/pelvis_tilt/value	/jointset/ground_pelvis/pelvis_tx/value	/jointset/ground_pelvis/pelvis_ty/value	/jointset/hip_l/hip_flexion_l/value	/jointset/hip_l/hip_adduction_l/value	/jointset/hip_l/hip_rotation_l/value	/jointset/back/lumbar_extension/value	/jointset/patellofemoral_l/patellar_flexion_l/value	/jointset/knee_l/knee_flexion_l/value	/jointset/knee_l/knee_adduction_l/value	/jointset/knee_l/knee_rotation_l/value	/jointset/ankle_l/ankle_angle_l/value	/jointset/subtalar_l/subtalar_angle_l/value	/jointset/ground_pelvis/pelvis_tilt/speed	/jointset/ground_pelvis/pelvis_tx/speed	/jointset/ground_pelvis/pelvis_ty/speed	/jointset/hip_l/hip_flexion_l/speed	/jointset/hip_l/hip_adduction_l/speed	/jointset/hip_l/hip_rotation_l/speed	/jointset/back/lumbar_extension/speed	/jointset/patellofemoral_l/patellar_flexion_l/speed	/jointset/knee_l/knee_flexion_l/speed	/jointset/knee_l/knee_adduction_l/speed	/jointset/knee_l/knee_rotation_l/speed	/jointset/ankle_l/ankle_angle_l/speed	/jointset/subtalar_l/subtalar_angle_l/speed	/forceset/tau_hip_flexion_l	/forceset/tau_hip_adduction_l	/forceset/tau_hip_rotation_l	/forceset/tau_knee_flexion_l	/forceset/tau_ankle_angle_l	/forceset/tau_subtalar_angle_l	/forceset/tau_lumbar_extension	lambda_cid13_p0	lambda_cid13_p1	lambda_cid13_p2	lambda_cid13_p3	lambda_cid13_p4	lambda_cid13_p5	lambda_cid14_p0	/jointset/ground_pelvis/pelvis_tilt/accel	/jointset/ground_pelvis/pelvis_tx/accel	/jointset/ground_pelvis/pelvis_ty/accel	/jointset/hip_l/hip_flexion_l/accel	/jointset/hip_l/hip_adduction_l/accel	/jointset/hip_l/hip_rotation_l/accel	/jointset/back/lumbar_extension/accel	/jointset/patellofemoral_l/patellar_flexion_l/accel	/jointset/knee_l/knee_flexion_l/accel	/jointset/knee_l/knee_adduction_l/accel	/jointset/knee_l/knee_rotation_l/accel	/jointset/ankle_l/ankle_angle_l/accel	/jointset/subtalar_l/subtalar_angle_l/accel	gamma_cid13_p0	gamma_cid13_p1	gamma_cid13_p2	gamma_cid13_p3	gamma_cid13_p4	gamma_cid13_p5	gamma_cid14_p0
1.5	-0.4761999530517564	-0.08642844874450582	0.7708697137467926	1.251700088169257	-0.3095331033126482	-0.08140845016897898	-0.3434485938610884	0.5964083370899014	0.5964083370899147	-0.1745014930458889	0.1745188969253315	-0.02133996197543902	-0.05943051938437178	0.820983419657572	0.298933666686074	0.4472429562085535	-2.289963411462262	0.05683330721357709	-0.5131460528773403	0.5665464441560888	-1.499703398721521	-1.499703398721872	0.0003441891983489062	0.0001789811566027809	-0.09897549262259953	0.05272683676395203	-0.2639200905579906	0.01486109106942044	-0.01786514283853404	-0.1747201448830675	0.1545465501288452	0.04796379251935932	0.2326362782205887	10.4068636692643	-25.31741173442432	6.677448983676476	-5.616934229356774	-612.8085496759736	-63.69319806777808	-33.30061806681734	0.5999912299218592	0.6770755848973471	-0.2165336157181633	-1.538224595498273	0.4507880955016103	-0.236090489413953	1.721258438407931	-0.9221199649931874	-0.9221199649931657	0.02222850633512058	-0.0266773149075912	0.09514940226151117	0.4573801792380617	-1.0302129300176e-08	8.195949229032836e-07	-1.067589338902964e-07	1.383558423798565e-07	1.440100118480538e-07	-3.147198789482494e-08	1.195699100429095e-07
1.51	-0.4679605848055066	-0.08340549744791804	0.7753304784629724	1.228725716162188	-0.3089430260111929	-0.08655210844591477	-0.3376984878341291	0.5813673277892837	0.5813673277893125	-0.1744980427202286	0.1745208784777615	-0.02232485536708127	-0.05888117946024702	0.8267774647222418	0.3056237880474378	0.4448225058281017	-2.304597706880969	0.06118645259893595	-0.5155084107397319	0.5834004886250959	-1.508286592954233	-1.508286592954184	0.0003443045328611968	0.0002081122881765325	-0.09797239305333373	0.05714746675192337	-0.2554818919181026	0.01391359710223041	-0.01786042741463705	-0.173999128597629	0.1541367397275756	0.0470660425774445	0.2262234734515509	10.50028857701533	-25.05772424353519	6.76608871182649	-5.539358822027904	-608.5915388443746	-63.96003957846467	-34.02965098704855	0.552202862838102	0.6600891248225497	-0.2678911808370146	-1.379030857276251	0.4281065194374941	-0.2245967647091385	1.656336559737418	-0.7946636900333469	-0.7946636899734124	-0.01117509285766478	0.01640266967163333	0.1075133237020639	0.4352251806876136	-1.507812683638246e-08	8.655693730381355e-07	-1.047517548116951e-07	1.440640074450756e-07	1.537328894069804e-07	-2.114109332879489e-08	1.225094954570154e-07
1.52	-0.4596666577649854	-0.0803166231951032	0.7797644205890222	1.205614401432492	-0.3083093115040079	-0.09171704796748353	-0.3317820695407602	0.5662468376388214	0.5662468376388533	-0.1744946068692144	0.1745228902099964	-0.02329879314514171	-0.05828746908182029	0.8318951785108395	0.312118257931483	0.4418784381824968	-2.317351955988454	0.06556074835967186	-0.5174023018044168	0.5998088974377083	-1.515599568691871	-1.515599568691423	0.00034129427269753	0.0001850171190245486	-0.0967843699063487	0.06160092762433174	-0.2470436932782018	0.01296610313504706	-0.0178557119908635	-0.1732781123121692	0.1537269293263092	0.04616829263553707	0.2198106686825247	10.58535657311848	-24.7982826685755	6.856719833550891	-5.438828682439315	-604.5001489741073	-64.27108278420182	-34.73374290986006	0.464724974707567	0.6379452894335214	-0.3212570687488034	-1.162215333253659	0.4550181705770761	-0.1423971298725802	1.632131307129084	-0.6680762659785104	-0.6680762659785225	0.02160338740001471	-0.03712257505280429	0.1321341178052638	0.4639463561254981	-1.992553692903071e-08	9.078192046757968e-07	-1.027403568590924e-07	1.489057267453105e-07	1.634360755352953e-07	-1.011855061824966e-08	1.248169098361096e-07
1.53	-0.4513249515730678	-0.07716385778894122	0.7841663349525262	1.182384996329752	-0.3076318230228247	-0.09689874866540189	-0.3257039944503541	0.5510596208068017	0.5510596208068488	-0.1744912407834004	0.1745245665871366	-0.02425996115641205	-0.05764913659360574	0.8363265320383129	0.3183936854793306	0.4384191320751962	-2.328199614757646	0.0699356066127656	-0.5188648666190552	0.615716318256211	-1.521622686829039	-1.521622686828684	0.0003314065359078262	0.0001471664089107844	-0.09542055606192956	0.06606610211471944	-0.2384782762525079	0.01185315231877034	-0.01789233727569432	-0.1725817653144999	0.1533683346289393	0.04516361951016105	0.2132445172387124	10.68543026489173	-24.49742542391228	6.943482380886728	-5.31679337623911	-600.3703668293103	-64.52478072721449	-35.4098068049605	0.4144160910127453	0.61620179917104	-0.3710270878951451	-0.9966164309917209	0.4283892642206314	-0.1371025769577536	1.556577111316993	-0.5362884208646227	-0.5362884208787044	-0.01219216967988314	0.012500486209591	0.1428100238078854	0.4377433473840108	-2.484882286289835e-08	9.461116291601932e-07	-1.007244763528635e-07	1.528268474202499e-07	1.731183395185853e-07	1.638868245842942e-09	1.264526424905038e-07
1.54	-0.4429425167360219	-0.07394956604495853	0.7885311043137224	1.159056999582875	-0.3069106520368025	-0.1020928582954069	-0.3194695392233403	0.5358188010267659	0.5358188010268041	-0.1744879550380699	0.1745257878182025	-0.02520663002802852	-0.05696616429010954	0.8400409075355926	0.3244235254956252	0.4344494377208962	-2.33707028481643	0.07429724932766446	-0.5198840882216242	0.6310849247589497	-1.526320158297352	-1.526320158297091	0.0003252261806613991	9.398790681196381e-05	-0.09388454197560395	0.07052889068064967	-0.2299128592268092	0.01074020150248981	-0.01792896256069983	-0.1718854183168052	0.1530097399315691	0.04415894638478172	0.2066783657949076	10.77702408562851	-24.19648725900304	7.031835512576406	-5.168830867776423	-596.3662187301462	-64.82255425784176	-36.05487785150907	0.3213293686689462	0.5888277831228002	-0.4233347181486856	-0.7668175911719435	0.4523750629381492	-0.05372848745874349	1.524368443976335	-0.4029469322074732	-0.4029469322074682	0.02234486370875058	-0.04018813344985513	0.1665741661864578	0.4634691712340206	-2.683365862957754e-08	9.771180500910694e-07	-1.073543557624975e-07	1.524002738864861e-07	1.864690219956317e-07	1.281451926686398e-08	1.284757825570077e-07
